<svg width="68" height="68" viewBox="0 0 68 68" fill="none" xmlns="http://www.w3.org/2000/svg">
<g filter="url(#filter0_d_156_1954)">
<rect x="4" width="60" height="60" rx="16" fill="white" shape-rendering="crispEdges"/>
<rect x="4.5" y="0.5" width="59" height="59" rx="15.5" stroke="#9DA1A7" shape-rendering="crispEdges"/>
<path d="M27.0121 27.2748C27.0121 27.6766 27.0556 28.0022 27.1315 28.2411C27.228 28.5098 27.3441 28.771 27.4789 29.0227C27.5332 29.1095 27.5548 29.1963 27.5548 29.2724C27.5548 29.3809 27.4898 29.4895 27.3486 29.5981L26.6647 30.054C26.567 30.1192 26.4693 30.1517 26.3823 30.1517C26.2739 30.1517 26.1653 30.0974 26.0567 29.9997C25.9104 29.8425 25.7796 29.6717 25.6659 29.4895C25.5573 29.3051 25.4487 29.0986 25.3294 28.849C24.4826 29.8477 23.4186 30.3472 22.1376 30.3472C21.2258 30.3472 20.4983 30.0866 19.9663 29.5656C19.4345 29.0443 19.1631 28.3496 19.1631 27.4811C19.1631 26.5584 19.4888 25.8093 20.151 25.2448C20.8131 24.6802 21.6926 24.398 22.8107 24.398C23.1798 24.398 23.5598 24.4305 23.9614 24.4848C24.3632 24.5391 24.7757 24.6259 25.21 24.7237V23.9312C25.21 23.106 25.0362 22.5307 24.6996 22.1942C24.3523 21.8576 23.766 21.6947 22.9301 21.6947C22.5501 21.6947 22.1594 21.7382 21.7576 21.836C21.356 21.9335 20.9651 22.053 20.5852 22.2051C20.4115 22.281 20.2813 22.3244 20.2052 22.3462C20.1292 22.368 20.0749 22.3787 20.0315 22.3787C19.8795 22.3787 19.8036 22.2701 19.8036 22.0422V21.5102C19.8036 21.3365 19.8253 21.2062 19.8795 21.1303C19.9338 21.0542 20.0315 20.9783 20.1835 20.9023C20.5635 20.7069 21.0194 20.544 21.5513 20.4138C22.0834 20.2726 22.648 20.2076 23.245 20.2076C24.537 20.2076 25.4815 20.5006 26.0894 21.0869C26.6865 21.6731 26.9905 22.5633 26.9905 23.7575V27.2748H27.0121ZM22.6044 28.925C22.9628 28.925 23.3319 28.8599 23.7226 28.7295C24.1135 28.5993 24.4609 28.3604 24.7539 28.0348C24.9277 27.8286 25.058 27.6006 25.123 27.34C25.1882 27.0795 25.2316 26.7646 25.2316 26.3955V25.9396C24.9024 25.8594 24.569 25.7978 24.2328 25.755C23.8944 25.712 23.5536 25.6902 23.2124 25.6898C22.4849 25.6898 21.9531 25.8309 21.5949 26.1241C21.2365 26.4172 21.0629 26.8298 21.0629 27.3725C21.0629 27.8827 21.1931 28.2627 21.4645 28.5233C21.7251 28.7947 22.1051 28.925 22.6044 28.925ZM31.322 30.0974C31.1265 30.0974 30.9963 30.0649 30.9095 29.9888C30.8226 29.9238 30.7465 29.7718 30.6815 29.5656L28.1304 21.1737C28.065 20.9565 28.0325 20.8154 28.0325 20.7394C28.0325 20.5658 28.1193 20.4679 28.2931 20.4679H29.357C29.5632 20.4679 29.7045 20.5006 29.7804 20.5765C29.8672 20.6417 29.9324 20.7937 29.9975 20.9999L31.8213 28.1868L33.5149 20.9999C33.5692 20.7828 33.6344 20.6417 33.7211 20.5765C33.808 20.5115 33.9601 20.4681 34.1555 20.4681H35.0239C35.2301 20.4681 35.3714 20.5006 35.4581 20.5765C35.545 20.6417 35.621 20.7937 35.6644 20.9999L37.3798 28.2736L39.2578 20.9999C39.3228 20.7828 39.3989 20.6417 39.4748 20.5765C39.5617 20.5115 39.7028 20.4681 39.8982 20.4681H40.9078C41.0816 20.4681 41.1793 20.5549 41.1793 20.7394C41.1793 20.7937 41.1684 20.848 41.1575 20.9131C41.1467 20.9783 41.125 21.0651 41.0816 21.1846L38.4651 29.5763C38.4001 29.7935 38.3241 29.9347 38.2372 29.9997C38.1504 30.0649 38.0092 30.1083 37.8248 30.1083H36.8912C36.6849 30.1083 36.5437 30.0758 36.4568 29.9997C36.3699 29.9238 36.294 29.7826 36.2506 29.5656L34.5677 22.5633L32.8959 29.5546C32.8418 29.7718 32.7766 29.9129 32.6897 29.9888C32.6029 30.0649 32.4509 30.0974 32.2556 30.0974H31.322ZM45.2721 30.3906C44.7076 30.3906 44.1431 30.3254 43.6003 30.1952C43.0574 30.0649 42.6342 29.9237 42.3519 29.761C42.1781 29.6632 42.0586 29.5547 42.0153 29.457C41.9731 29.3611 41.9509 29.2577 41.9502 29.1529V28.5993C41.9502 28.3713 42.037 28.2627 42.1999 28.2627C42.2664 28.263 42.3324 28.274 42.3953 28.2954C42.4604 28.3172 42.5581 28.3604 42.6667 28.4039C43.0501 28.5725 43.4504 28.6999 43.8608 28.7838C44.2861 28.8701 44.7189 28.9138 45.1528 28.9141C45.8367 28.9141 46.3687 28.7947 46.7378 28.5559C47.1069 28.317 47.3023 27.9697 47.3023 27.5245C47.3023 27.2206 47.2046 26.9709 47.0091 26.7646C46.8137 26.5584 46.4446 26.3738 45.9127 26.2L44.3385 25.7116C43.546 25.4619 42.9599 25.0928 42.6015 24.6042C42.2433 24.1265 42.0588 23.5946 42.0588 23.0301C42.0588 22.5742 42.1565 22.1724 42.3519 21.8249C42.5472 21.4776 42.8078 21.1737 43.1335 20.9349C43.4592 20.6851 43.8283 20.5006 44.2626 20.3703C44.6967 20.2401 45.1527 20.1858 45.6304 20.1858C45.8692 20.1858 46.1189 20.1967 46.3578 20.2292C46.6075 20.2617 46.8355 20.3052 47.0634 20.3486C47.2805 20.4029 47.4868 20.4572 47.6823 20.5224C47.8777 20.5874 48.0296 20.6526 48.1382 20.7177C48.2902 20.8046 48.3987 20.8915 48.4639 20.9892C48.5291 21.076 48.5616 21.1954 48.5616 21.3474V21.8576C48.5616 22.0856 48.4748 22.2051 48.3119 22.2051C48.225 22.2051 48.0839 22.1615 47.8995 22.0747C47.2805 21.7924 46.5857 21.6513 45.815 21.6513C45.1962 21.6513 44.7076 21.749 44.371 21.9553C44.0346 22.1615 43.8608 22.4764 43.8608 22.9215C43.8608 23.2255 43.9694 23.486 44.1865 23.6923C44.4037 23.8985 44.8053 24.1048 45.3807 24.2894L46.9223 24.778C47.7039 25.0277 48.2684 25.375 48.605 25.8201C48.9416 26.2652 49.1045 26.7755 49.1045 27.34C49.1045 27.8068 49.0066 28.2302 48.8221 28.5993C48.6268 28.9684 48.3662 29.2941 48.0296 29.5547C47.693 29.8261 47.2914 30.0215 46.8246 30.1626C46.336 30.3146 45.8258 30.3906 45.2721 30.3906Z" fill="#252F3E"/>
<path d="M47.324 35.6667C43.7524 38.3048 38.563 39.7052 34.1012 39.7052C27.848 39.7052 22.2137 37.3928 17.9581 33.5497C17.6215 33.2458 17.9255 32.8333 18.3271 33.072C22.9301 35.7428 28.608 37.3603 34.4812 37.3603C38.4437 37.3603 42.797 36.5353 46.803 34.8417C47.4 34.5702 47.9103 35.2325 47.324 35.6667ZM48.8114 33.9731C48.3554 33.3869 45.7933 33.6908 44.6317 33.832C44.2842 33.8755 44.2299 33.5715 44.5449 33.3435C46.5858 31.9104 49.9404 32.3231 50.3312 32.8006C50.722 33.2892 50.2226 36.6437 48.3119 38.2505C48.0189 38.5002 47.7366 38.37 47.8669 38.0443C48.301 36.9694 49.2673 34.5485 48.8114 33.9731Z" fill="#FF9900"/>
</g>
<defs>
<filter id="filter0_d_156_1954" x="0" y="0" width="68" height="68" filterUnits="userSpaceOnUse" color-interpolation-filters="sRGB">
<feFlood flood-opacity="0" result="BackgroundImageFix"/>
<feColorMatrix in="SourceAlpha" type="matrix" values="0 0 0 0 0 0 0 0 0 0 0 0 0 0 0 0 0 0 127 0" result="hardAlpha"/>
<feOffset dy="4"/>
<feGaussianBlur stdDeviation="2"/>
<feComposite in2="hardAlpha" operator="out"/>
<feColorMatrix type="matrix" values="0 0 0 0 0 0 0 0 0 0 0 0 0 0 0 0 0 0 0.25 0"/>
<feBlend mode="normal" in2="BackgroundImageFix" result="effect1_dropShadow_156_1954"/>
<feBlend mode="normal" in="SourceGraphic" in2="effect1_dropShadow_156_1954" result="shape"/>
</filter>
</defs>
</svg>
