<svg width="68" height="68" viewBox="0 0 68 68" fill="none" xmlns="http://www.w3.org/2000/svg">
<g filter="url(#filter0_d_156_1966)">
<rect x="4" width="60" height="60" rx="16" fill="white" shape-rendering="crispEdges"/>
<rect x="4.5" y="0.5" width="59" height="59" rx="15.5" stroke="#9DA1A7" shape-rendering="crispEdges"/>
<path d="M21.3778 44.0013L18.5703 12.5H49.4303L46.6191 43.9963L33.9816 47.5L21.3778 44.0013Z" fill="#1572B6"/>
<path d="M34 44.8224L44.2125 41.9912L46.615 15.0762H34V44.8224Z" fill="#33A9DC"/>
<path d="M34 26.4887H39.1125L39.465 22.5325H34V18.6687H43.6875L43.595 19.705L42.6462 30.3525H34V26.4887Z" fill="white"/>
<path d="M34.0236 36.5224L34.0061 36.5274L29.7036 35.3649L29.4286 32.2837H25.5498L26.0911 38.3499L34.0048 40.5474L34.0236 40.5424V36.5224Z" fill="#EBEBEB"/>
<path d="M38.7835 30.1887L38.3185 35.3625L34.0098 36.525V40.545L41.9298 38.35L41.9885 37.6975L42.6598 30.1887H38.7835Z" fill="white"/>
<path d="M34.0137 18.6687V22.5325H24.6812L24.6037 21.6637L24.4275 19.705L24.335 18.6687H34.0137ZM34 26.4887V30.3525H29.7512L29.6737 29.4837L29.4987 27.525L29.4062 26.4887H34Z" fill="#EBEBEB"/>
</g>
<defs>
<filter id="filter0_d_156_1966" x="0" y="0" width="68" height="68" filterUnits="userSpaceOnUse" color-interpolation-filters="sRGB">
<feFlood flood-opacity="0" result="BackgroundImageFix"/>
<feColorMatrix in="SourceAlpha" type="matrix" values="0 0 0 0 0 0 0 0 0 0 0 0 0 0 0 0 0 0 127 0" result="hardAlpha"/>
<feOffset dy="4"/>
<feGaussianBlur stdDeviation="2"/>
<feComposite in2="hardAlpha" operator="out"/>
<feColorMatrix type="matrix" values="0 0 0 0 0 0 0 0 0 0 0 0 0 0 0 0 0 0 0.25 0"/>
<feBlend mode="normal" in2="BackgroundImageFix" result="effect1_dropShadow_156_1966"/>
<feBlend mode="normal" in="SourceGraphic" in2="effect1_dropShadow_156_1966" result="shape"/>
</filter>
</defs>
</svg>
