<svg width="48" height="48" viewBox="0 0 48 48" fill="none" xmlns="http://www.w3.org/2000/svg">
<path fill-rule="evenodd" clip-rule="evenodd" d="M3 9.75C3 7.67957 4.67957 6 6.75 6H41.25C43.3204 6 45 7.67957 45 9.75V32.25C45 34.3204 43.3204 36 41.25 36H28.5V39H36C36.8284 39 37.5 39.6716 37.5 40.5C37.5 41.3284 36.8284 42 36 42H12C11.1716 42 10.5 41.3284 10.5 40.5C10.5 39.6716 11.1716 39 12 39H19.5V36H6.75C4.67957 36 3 34.3204 3 32.25V9.75ZM22.5 36V39H25.5V36H22.5ZM6.75 33C6.33643 33 6 32.6636 6 32.25V9.75C6 9.33643 6.33643 9 6.75 9H41.25C41.6636 9 42 9.33643 42 9.75V32.25C42 32.6636 41.6636 33 41.25 33H6.75Z" fill="#1C1C1C"/>
</svg>
