<svg width="68" height="68" viewBox="0 0 68 68" fill="none" xmlns="http://www.w3.org/2000/svg">
<g filter="url(#filter0_d_156_1956)">
<rect x="4" width="60" height="60" rx="16" fill="white" shape-rendering="crispEdges"/>
<rect x="4.5" y="0.5" width="59" height="59" rx="15.5" stroke="#9DA1A7" shape-rendering="crispEdges"/>
<path d="M34.0002 47.5C33.528 47.5002 33.0641 47.376 32.6552 47.14L28.3752 44.6063C27.7365 44.2488 28.0477 44.1225 28.259 44.0488C28.9383 43.8389 29.5888 43.5449 30.1952 43.1738C30.246 43.1503 30.3019 43.1401 30.3577 43.1443C30.4134 43.1484 30.4672 43.1668 30.514 43.1975L33.8027 45.1513C33.8639 45.1837 33.9322 45.2006 34.0015 45.2006C34.0707 45.2006 34.139 45.1837 34.2002 45.1513L47.0252 37.7488C47.0852 37.7128 47.1349 37.6619 47.1693 37.6009C47.2037 37.54 47.2217 37.4712 47.2215 37.4013V22.5938C47.2215 22.5227 47.2032 22.4528 47.1684 22.3908C47.1336 22.3289 47.0834 22.2769 47.0227 22.24L34.1977 14.8438C34.1372 14.8097 34.069 14.7918 33.9996 14.7918C33.9302 14.7918 33.8619 14.8097 33.8015 14.8438L20.984 22.2425C20.9228 22.2787 20.872 22.33 20.8366 22.3915C20.8011 22.4531 20.7821 22.5227 20.7815 22.5938V37.395C20.7816 37.4648 20.8004 37.5333 20.8357 37.5935C20.8711 37.6537 20.9218 37.7034 20.9827 37.7375L24.5002 39.7675C26.4065 40.72 27.574 39.5975 27.574 38.47V23.8563C27.574 23.7568 27.6135 23.6614 27.6838 23.5911C27.7541 23.5208 27.8495 23.4813 27.949 23.4813H29.574C29.6734 23.4813 29.7688 23.5208 29.8391 23.5911C29.9094 23.6614 29.949 23.7568 29.949 23.8563V38.4713C29.949 41.015 28.564 42.4713 26.1515 42.4713C25.1107 42.4894 24.0862 42.2111 23.1977 41.6688L19.8265 39.735C19.4172 39.4967 19.0776 39.1552 18.8416 38.7445C18.6056 38.3339 18.4814 37.8686 18.4815 37.395V22.5938C18.4802 22.1194 18.6039 21.6531 18.84 21.2417C19.0761 20.8303 19.4163 20.4883 19.8265 20.25L32.6527 12.845C33.0659 12.619 33.5293 12.5005 34.0002 12.5005C34.4712 12.5005 34.9345 12.619 35.3477 12.845L48.1727 20.25C48.5819 20.4879 48.9216 20.8289 49.1578 21.2391C49.394 21.6492 49.5186 22.1142 49.519 22.5875V37.395C49.5183 37.8686 49.3936 38.3338 49.1574 38.7443C48.9213 39.1548 48.5818 39.4964 48.1727 39.735L35.3477 47.14C34.938 47.3764 34.4732 47.5006 34.0002 47.5Z" fill="#83CD29"/>
<path d="M31.5674 32.4412C31.5674 32.3417 31.6069 32.2463 31.6772 32.176C31.7475 32.1057 31.8429 32.0662 31.9424 32.0662H33.6011C33.6898 32.0664 33.7754 32.0981 33.8429 32.1555C33.9104 32.213 33.9554 32.2925 33.9699 32.3799C34.2199 34.0687 34.9699 34.9199 38.3611 34.9199C41.0624 34.9199 42.2136 34.3087 42.2136 32.8749C42.2136 32.0487 41.8874 31.4349 37.6886 31.0237C34.1786 30.6762 32.0086 29.8987 32.0086 27.0937C32.0086 24.5062 34.1899 22.9624 37.8461 22.9624C41.9549 22.9624 43.9886 24.3887 44.2461 27.4487C44.2501 27.4997 44.2435 27.5511 44.2268 27.5995C44.2101 27.648 44.1837 27.6925 44.1491 27.7303C44.1146 27.7682 44.0726 27.7985 44.0259 27.8195C43.9792 27.8405 43.9286 27.8517 43.8774 27.8524H42.2074C42.1236 27.8512 42.0426 27.822 41.9774 27.7695C41.9121 27.7169 41.8664 27.644 41.8474 27.5624C41.4486 25.7862 40.4724 25.2187 37.8474 25.2187C34.8974 25.2187 34.5549 26.2462 34.5549 27.0162C34.5549 27.9487 34.9599 28.2212 38.9424 28.7474C42.8836 29.2687 44.7561 30.0062 44.7561 32.7762C44.7561 35.5712 42.4261 37.1712 38.3624 37.1712C32.7436 37.1787 31.5674 34.6024 31.5674 32.4412Z" fill="#83CD29"/>
</g>
<defs>
<filter id="filter0_d_156_1956" x="0" y="0" width="68" height="68" filterUnits="userSpaceOnUse" color-interpolation-filters="sRGB">
<feFlood flood-opacity="0" result="BackgroundImageFix"/>
<feColorMatrix in="SourceAlpha" type="matrix" values="0 0 0 0 0 0 0 0 0 0 0 0 0 0 0 0 0 0 127 0" result="hardAlpha"/>
<feOffset dy="4"/>
<feGaussianBlur stdDeviation="2"/>
<feComposite in2="hardAlpha" operator="out"/>
<feColorMatrix type="matrix" values="0 0 0 0 0 0 0 0 0 0 0 0 0 0 0 0 0 0 0.25 0"/>
<feBlend mode="normal" in2="BackgroundImageFix" result="effect1_dropShadow_156_1956"/>
<feBlend mode="normal" in="SourceGraphic" in2="effect1_dropShadow_156_1956" result="shape"/>
</filter>
</defs>
</svg>
