<svg width="48" height="48" viewBox="0 0 48 48" fill="none" xmlns="http://www.w3.org/2000/svg">
<path d="M6 9V12H39V36H18V39H45V36H42V9H6ZM12.003 13.5C10.4131 13.5055 8.8899 14.1394 7.76541 15.2633C6.64091 16.3872 6.00632 17.9101 6 19.5C6 22.7985 8.706 25.5 12.003 25.5C13.5921 25.4937 15.1142 24.8594 16.2376 23.7355C17.361 22.6115 17.9945 21.0891 18 19.5C18 16.2045 15.297 13.5 12.003 13.5ZM21 15V18H28.5V15H21ZM31.5 15V18H36V15H31.5ZM12.003 16.5C13.674 16.5 15 17.8245 15 19.5C15 21.18 13.6755 22.5 12.003 22.5C10.323 22.5 9 21.18 9 19.5C9 17.8245 10.3245 16.5 12.003 16.5ZM21 21V24H36V21H21ZM6 27V39H9V30H13.5V39H16.5V30.987L19.596 32.625C20.4735 33.09 21.528 33.0885 22.404 32.625V32.628L27.699 29.8275L26.2995 27.1725L21.003 29.973L16.359 27.522C15.7109 27.1796 14.989 27.0004 14.256 27H6Z" fill="#1C1C1C"/>
</svg>
