<svg width="68" height="68" viewBox="0 0 68 68" fill="none" xmlns="http://www.w3.org/2000/svg">
<g filter="url(#filter0_d_156_1960)">
<rect x="4" width="60" height="60" rx="16" fill="white" shape-rendering="crispEdges"/>
<rect x="4.5" y="0.5" width="59" height="59" rx="15.5" stroke="#9DA1A7" shape-rendering="crispEdges"/>
<path d="M44.0021 24.5249C43.6717 24.3976 43.3386 24.2797 43.0029 24.1713C43.0593 23.9126 43.1112 23.657 43.1573 23.4059C43.9137 19.2828 43.4192 15.9611 41.7302 14.8675C40.1108 13.819 37.4624 14.9123 34.7877 17.5262C34.5241 17.7842 34.2664 18.0497 34.0147 18.3224C33.8463 18.1411 33.6748 17.9633 33.5005 17.7891C30.6972 14.9942 27.8875 13.8163 26.2003 14.9131C24.5824 15.9648 24.1033 19.0874 24.7843 22.995C24.852 23.382 24.9285 23.767 25.0137 24.1496C24.616 24.2765 24.2322 24.4116 23.8649 24.5554C20.5783 25.8421 18.4795 27.8585 18.4795 29.9501C18.4795 32.1103 20.7327 34.2771 24.1558 35.5909C24.4333 35.697 24.7131 35.7953 24.995 35.8857C24.9035 36.2978 24.8222 36.7127 24.7513 37.1299C24.1021 40.9697 24.609 44.0185 26.2226 45.0635C27.8892 46.1427 30.6863 45.0336 33.4099 42.36C33.6307 42.1427 33.8467 41.9192 34.0577 41.6897C34.3302 41.985 34.61 42.2717 34.8968 42.5494C37.5351 45.0987 40.1406 46.128 41.7526 45.0801C43.4176 43.9978 43.9588 40.7226 43.2562 36.7378C43.2009 36.4256 43.1388 36.115 43.0701 35.8062C43.2665 35.7408 43.4593 35.6735 43.6473 35.6035C47.2059 34.2796 49.5213 32.1392 49.5213 29.9501C49.5213 27.8509 47.3547 25.8209 44.0021 24.5249ZM43.2303 34.1902C43.0605 34.2532 42.8864 34.3141 42.7089 34.3733C42.316 32.9767 41.7859 31.4917 41.137 29.9573C41.7562 28.4595 42.2659 26.9935 42.6478 25.606C42.9653 25.7092 43.2734 25.818 43.5705 25.9328C46.4431 27.0433 48.1953 28.685 48.1953 29.9501C48.1953 31.2976 46.3029 33.0468 43.2303 34.1902ZM41.9554 37.027C42.266 38.7889 42.3103 40.382 42.1045 41.6275C41.9197 42.7466 41.548 43.4926 41.0881 43.7915C40.11 44.4274 38.0179 43.6009 35.7617 41.4207C35.495 41.1624 35.2347 40.8959 34.9811 40.6214C35.8559 39.5472 36.73 38.2985 37.5832 36.9115C39.0839 36.762 40.5016 36.5175 41.7873 36.1837C41.8492 36.4633 41.9053 36.7445 41.9554 37.027ZM29.0623 43.6816C28.1066 44.0606 27.3453 44.0714 26.8852 43.7735C25.906 43.1394 25.499 40.6914 26.0542 37.4077C26.1202 37.0197 26.1958 36.6338 26.2808 36.2505C27.5523 36.5663 28.9598 36.7935 30.464 36.9304C31.3229 38.2876 32.2223 39.5349 33.1287 40.6272C32.9361 40.8365 32.7389 41.0405 32.5373 41.2389C31.3329 42.421 30.126 43.2598 29.0623 43.6816ZM24.5848 34.1819C23.0711 33.6009 21.8211 32.8459 20.9643 32.0219C20.1943 31.2816 19.8057 30.5465 19.8057 29.9501C19.8057 28.6808 21.4908 27.0618 24.3014 25.9615C24.6425 25.8281 24.9995 25.7021 25.3699 25.5839C25.7584 27.0028 26.268 28.4862 26.8829 29.9863C26.26 31.5086 25.7432 33.0158 25.3509 34.4513C25.0936 34.3686 24.8382 34.2787 24.5848 34.1819ZM26.0857 22.7089C25.5023 19.3611 25.8898 16.8357 26.8648 16.2019C27.9032 15.5268 30.1996 16.4893 32.62 18.9026C32.7779 19.0604 32.9331 19.2213 33.0858 19.3853C32.1839 20.4728 31.2927 21.711 30.4414 23.0601C28.9815 23.212 27.584 23.456 26.2991 23.7829C26.22 23.427 26.1488 23.0688 26.0857 22.7089ZM39.4758 26.4219C39.1723 25.8332 38.8576 25.252 38.5318 24.6786C39.5222 24.8193 40.4712 25.0059 41.3623 25.2341C41.0948 26.1971 40.7614 27.2037 40.3688 28.2358C40.0819 27.6246 39.7842 27.0198 39.4758 26.4219ZM34.0153 20.4497C34.627 21.1938 35.2395 22.0245 35.8421 22.9259C34.6198 22.8611 33.3955 22.8608 32.1732 22.9251C32.7763 22.032 33.3941 21.2024 34.0153 20.4497ZM28.5198 26.432C28.2153 27.0251 27.9231 27.6261 27.6435 28.2345C27.2574 27.206 26.927 26.1948 26.6572 25.2182C27.5429 24.9957 28.4873 24.8138 29.4715 24.6757C29.1421 25.2527 28.8248 25.8383 28.5198 26.432ZM29.4997 35.3304C28.483 35.203 27.5243 35.0304 26.6389 34.8139C26.9129 33.82 27.2506 32.7872 27.6451 31.7367C27.9258 32.3456 28.2192 32.9469 28.525 33.5403C28.8396 34.1503 29.1653 34.7478 29.4997 35.3304ZM34.052 39.5555C33.4234 38.7941 32.7965 37.9517 32.1842 37.0456C32.7786 37.0718 33.3846 37.0851 34.0004 37.0851C34.6331 37.0851 35.2586 37.0692 35.8742 37.0384C35.2697 37.9608 34.6595 38.8044 34.052 39.5555ZM40.3813 31.683C40.7963 32.7451 41.146 33.7724 41.4237 34.7494C40.5237 34.9801 39.5519 35.1658 38.528 35.3037C38.8561 34.7197 39.1739 34.1283 39.481 33.5301C39.7933 32.922 40.0935 32.3061 40.3813 31.683ZM38.3323 32.7861C37.8621 33.7033 37.3655 34.6031 36.8432 35.4841C35.8971 35.5594 34.9489 35.5968 34.0004 35.5962C33.0344 35.5962 32.0947 35.5624 31.1899 35.4965C30.654 34.6176 30.1479 33.7162 29.6726 32.7943C29.1996 31.8772 28.7579 30.9403 28.3483 29.9857C28.7569 29.0307 29.1974 28.0934 29.6687 27.1757L29.6686 27.1758C30.1398 26.2578 30.6419 25.3603 31.1738 24.4851C32.0969 24.4067 33.0436 24.3658 34.0003 24.3658C34.9614 24.3658 35.9094 24.4071 36.8323 24.4861C37.3588 25.3599 37.8576 26.2544 38.328 27.1678C38.8009 28.0835 39.2472 29.0162 39.6662 29.9645C39.2515 30.9225 38.8066 31.8637 38.3323 32.7861ZM41.0679 16.1575C42.1073 16.8307 42.5116 19.5453 41.8585 23.1053C41.8168 23.3324 41.77 23.5637 41.719 23.7983C40.4311 23.4645 39.0326 23.2162 37.5684 23.062C36.7155 21.698 35.8316 20.458 34.9444 19.3845C35.1769 19.1328 35.415 18.8876 35.6584 18.6492C37.9501 16.4098 40.092 15.5255 41.0679 16.1575ZM34.0004 26.8375C35.5313 26.8375 36.7724 28.2311 36.7724 29.9501C36.7724 31.6692 35.5313 33.0628 34.0004 33.0628C32.4695 33.0628 31.2285 31.6692 31.2285 29.9501C31.2285 28.2311 32.4695 26.8375 34.0004 26.8375Z" fill="#00D8FF"/>
</g>
<defs>
<filter id="filter0_d_156_1960" x="0" y="0" width="68" height="68" filterUnits="userSpaceOnUse" color-interpolation-filters="sRGB">
<feFlood flood-opacity="0" result="BackgroundImageFix"/>
<feColorMatrix in="SourceAlpha" type="matrix" values="0 0 0 0 0 0 0 0 0 0 0 0 0 0 0 0 0 0 127 0" result="hardAlpha"/>
<feOffset dy="4"/>
<feGaussianBlur stdDeviation="2"/>
<feComposite in2="hardAlpha" operator="out"/>
<feColorMatrix type="matrix" values="0 0 0 0 0 0 0 0 0 0 0 0 0 0 0 0 0 0 0.25 0"/>
<feBlend mode="normal" in2="BackgroundImageFix" result="effect1_dropShadow_156_1960"/>
<feBlend mode="normal" in="SourceGraphic" in2="effect1_dropShadow_156_1960" result="shape"/>
</filter>
</defs>
</svg>
