<svg width="48" height="48" viewBox="0 0 48 48" fill="none" xmlns="http://www.w3.org/2000/svg">
<path fill-rule="evenodd" clip-rule="evenodd" d="M32.7878 4.04202L32.9198 4.07802C35.1198 4.66802 36.8618 5.13402 38.2318 5.63002C39.6338 6.13602 40.7778 6.71402 41.7198 7.59602C43.0908 8.88107 44.0499 10.5438 44.4758 12.374C44.7698 13.63 44.6998 14.91 44.4358 16.376C44.1818 17.812 43.7158 19.554 43.1258 21.752L42.0538 25.75C41.4658 27.948 40.9978 29.69 40.5038 31.062C39.9958 32.462 39.4178 33.606 38.5358 34.548C37.2927 35.8754 35.6948 36.818 33.9318 37.264C33.4152 38.4482 32.6625 39.5146 31.7198 40.398C30.7778 41.28 29.6338 41.858 28.2318 42.366C26.8618 42.862 25.1198 43.328 22.9218 43.918L22.7878 43.954C20.5878 44.542 18.8478 45.008 17.4118 45.266C15.9458 45.528 14.6658 45.598 13.4078 45.306C11.5778 44.8786 9.91576 43.9181 8.63178 42.546C7.75178 41.606 7.17178 40.462 6.66378 39.06C6.16978 37.69 5.70378 35.948 5.11378 33.748L4.04178 29.752C3.45378 27.552 2.98578 25.812 2.72978 24.376C2.46778 22.91 2.39778 21.63 2.68978 20.372C3.11716 18.5421 4.07766 16.88 5.44978 15.596C6.38978 14.716 7.53378 14.136 8.93578 13.628C10.3058 13.134 12.0478 12.668 14.2458 12.078L14.3138 12.058L15.8158 11.658C16.5998 8.86002 17.2878 6.88202 18.6318 5.44802C19.916 4.07664 21.5781 3.11685 23.4078 2.69002C24.6658 2.39802 25.9438 2.46802 27.4118 2.73002C28.8458 2.98602 30.5878 3.45402 32.7878 4.04202ZM14.9098 15.006C12.7238 15.592 11.1578 16.016 9.95378 16.45C8.73378 16.89 8.01978 17.298 7.49978 17.786C6.56108 18.6646 5.90404 19.8019 5.61178 21.054C5.45178 21.75 5.45378 22.574 5.68378 23.848C5.91378 25.142 6.34778 26.762 6.95778 29.042L7.99378 32.906C8.60378 35.186 9.03978 36.806 9.48578 38.04C9.92578 39.26 10.3338 39.976 10.8218 40.496C11.7004 41.4347 12.8377 42.0918 14.0898 42.384C14.7838 42.544 15.6098 42.54 16.8838 42.312C18.1778 42.082 19.7978 41.648 22.0778 41.038C24.3578 40.426 25.9778 39.992 27.2138 39.544C28.4318 39.104 29.1478 38.696 29.6678 38.21C29.9438 37.95 30.1938 37.67 30.4198 37.372C30.0487 37.319 29.6793 37.2556 29.3118 37.182C27.9678 36.914 26.3518 36.482 24.3618 35.948L24.2458 35.918C22.0478 35.328 20.3058 34.862 18.9358 34.366C17.5338 33.86 16.3898 33.282 15.4478 32.4C14.0761 31.1152 13.1162 29.4524 12.6898 27.622C12.3978 26.366 12.4678 25.086 12.7298 23.62C12.9858 22.184 13.4538 20.442 14.0418 18.244L14.9098 15.006ZM26.8838 5.68402C25.6078 5.45402 24.7838 5.45002 24.0898 5.61202C22.8377 5.90429 21.7004 6.56132 20.8218 7.50002C19.9498 8.43002 19.4118 9.87002 18.4798 13.286C18.3278 13.842 18.1678 14.44 17.9938 15.09L16.9578 18.954C16.3478 21.234 15.9138 22.854 15.6838 24.148C15.4538 25.422 15.4498 26.248 15.6118 26.942C15.904 28.1941 16.5611 29.3314 17.4998 30.21C18.0198 30.698 18.7358 31.104 19.9538 31.546C21.1898 31.992 22.8098 32.426 25.0898 33.038C27.1398 33.588 28.6598 33.994 29.8958 34.238C31.1258 34.484 31.9618 34.544 32.6458 34.46C32.7958 34.44 32.9378 34.416 33.0778 34.384C34.3299 34.0918 35.4672 33.4347 36.3458 32.496C36.8338 31.976 37.2418 31.26 37.6818 30.042C38.1278 28.806 38.5618 27.186 39.1738 24.906L40.2098 21.042C40.8198 18.762 41.2538 17.142 41.4838 15.848C41.7118 14.574 41.7178 13.748 41.5558 13.054C41.2635 11.8019 40.6065 10.6646 39.6678 9.78602C39.1478 9.29802 38.4318 8.89202 37.2138 8.45002C35.9758 8.00402 34.3578 7.57002 32.0778 6.95802C29.7978 6.34802 28.1778 5.91402 26.8838 5.68402ZM22.1038 19.612C22.1548 19.4217 22.2429 19.2433 22.3629 19.0871C22.4829 18.9308 22.6325 18.7997 22.8032 18.7012C22.9739 18.6028 23.1623 18.539 23.3576 18.5134C23.553 18.4878 23.7515 18.5009 23.9418 18.552L33.6018 21.14C33.9754 21.2524 34.2905 21.5058 34.4803 21.8467C34.6702 22.1875 34.7197 22.5889 34.6185 22.9657C34.5173 23.3424 34.2732 23.6649 33.9382 23.8648C33.6031 24.0646 33.2034 24.126 32.8238 24.036L23.1638 21.448C22.7799 21.3449 22.4526 21.0936 22.2539 20.7494C22.0551 20.4051 22.0011 19.996 22.1038 19.612ZM20.5498 25.408C20.6008 25.2175 20.6889 25.0389 20.8091 24.8825C20.9292 24.7261 21.079 24.5949 21.2499 24.4964C21.4208 24.3979 21.6095 24.3342 21.8051 24.3087C22.0007 24.2832 22.1994 24.2966 22.3898 24.348L28.1838 25.9C28.5681 26.0029 28.8958 26.2543 29.0947 26.5988C29.2937 26.9433 29.3477 27.3527 29.2448 27.737C29.1419 28.1213 28.8905 28.449 28.546 28.648C28.2015 28.847 27.7921 28.9009 27.4078 28.798L21.6118 27.244C21.2279 27.1409 20.9006 26.8896 20.7019 26.5454C20.5031 26.2011 20.4491 25.792 20.5518 25.408" fill="black"/>
</svg>
