<svg width="1440" height="394" viewBox="0 0 1440 394" fill="none" xmlns="http://www.w3.org/2000/svg">
<path d="M26.2042 55.7822C26.2042 55.7822 32.8372 52.5253 46.103 46.0115C59.3688 39.4976 66.0017 36.2407 66.0017 36.2407C66.0017 36.2407 74.5367 33.0917 91.6067 26.7937C108.677 20.4957 127.235 14.9894 147.281 10.2749C167.327 5.56034 188.887 2.48436 211.96 1.04693C235.033 -0.390494 259.892 1.00542 286.538 5.23467C313.184 9.46392 339.317 16.666 364.935 26.8408C390.554 37.0157 414.76 49.0531 437.552 62.953C460.345 76.853 481.177 91.193 500.049 105.973C518.92 120.753 536.203 135.153 551.897 149.172C567.592 163.191 584.679 178.092 603.159 193.875C621.638 209.658 643.889 227.056 669.91 246.068C695.931 265.081 725.269 284.109 757.924 303.154C790.58 322.198 825.391 339.077 862.358 353.79C899.324 368.504 936.967 379.09 975.288 385.55C1013.61 392.009 1050.76 394.022 1086.73 391.588C1122.71 389.155 1156.16 383.702 1187.08 375.231C1218 366.759 1245.78 356.766 1270.42 345.25C1295.05 333.734 1316.1 322.209 1333.58 310.676C1351.05 299.143 1364.92 288.861 1375.17 279.83C1385.43 270.799 1393.43 263.043 1399.17 256.562C1404.91 250.08 1410.17 243.816 1414.94 237.769C1419.72 231.722 1425.81 223.841 1433.22 214.124C1440.63 204.407 1444.35 199.542 1444.38 199.529C1444.41 199.516 1444.44 199.516 1444.46 199.531C1444.49 199.545 1444.5 199.568 1444.51 199.598C1444.51 199.628 1444.5 199.653 1444.48 199.674C1444.46 199.695 1444.43 199.702 1444.4 199.697C1444.37 199.691 1444.35 199.675 1444.34 199.648C1444.33 199.62 1444.33 199.593 1444.34 199.567C1444.36 199.54 1444.38 199.525 1444.41 199.521C1444.44 199.517 1444.46 199.526 1444.48 199.548C1444.51 199.57 1444.51 199.596 1444.51 199.625C1444.5 199.655 1440.79 204.529 1433.38 214.246C1425.97 223.964 1419.87 231.848 1415.1 237.897C1410.32 243.947 1405.06 250.215 1399.31 256.702C1393.56 263.189 1385.56 270.95 1375.3 279.987C1365.03 289.023 1351.16 299.31 1333.68 310.848C1316.19 322.387 1295.13 333.916 1270.49 345.436C1245.84 356.956 1218.05 366.952 1187.11 375.426C1156.18 383.899 1122.71 389.353 1086.72 391.786C1050.73 394.219 1013.57 392.204 975.236 385.74C936.902 379.277 899.247 368.687 862.271 353.969C825.295 339.252 790.476 322.369 757.815 303.32C725.153 284.272 695.81 265.24 669.785 246.224C643.76 227.209 621.507 209.809 603.027 194.025C584.546 178.241 567.46 163.341 551.769 149.325C536.077 135.308 518.799 120.912 499.935 106.137C481.07 91.361 460.246 77.0257 437.463 63.1306C414.68 49.2356 390.487 37.2026 364.882 27.0315C339.278 16.8604 313.16 9.66057 286.529 5.43206C259.898 1.20355 235.051 -0.192702 211.989 1.24331C188.927 2.67933 167.377 5.75343 147.339 10.4656C127.3 15.1778 108.749 20.6815 91.6858 26.9768C74.6223 33.2721 59.4604 39.6751 46.2 46.1859C32.9396 52.6967 21.1977 59.0964 10.9742 65.3848C0.750641 71.6733 -4.37112 74.82 -4.39111 74.8249C-4.41111 74.8298 -4.43063 74.8283 -4.44968 74.8205C-4.46874 74.8127 -4.48369 74.8001 -4.49453 74.7826C-4.50537 74.7651 -4.51003 74.7461 -4.50851 74.7256L26.2042 55.7822Z" stroke="white" stroke-opacity="0.2"/>
</svg>
